<?xml version="1.0" standalone="no"?>
<!DOCTYPE svg PUBLIC "-//W3C//DTD SVG 20010904//EN"
 "http://www.w3.org/TR/2001/REC-SVG-20010904/DTD/svg10.dtd">
<svg version="1.0" xmlns="http://www.w3.org/2000/svg"
 width="100vw" height="579pt" viewBox="0 0 0 0"
 preserveAspectRatio="xMidYMid meet">
<metadata>
Created by potrace 1.10, written by Peter Selinger 2001-2011
</metadata>
<g 
fill="#1d2124" stroke="none">
<path d="M0 1260 l0 -1260 4500 0 4500 0 0 443 0 443 -197 12 c-319 18 -537
54 -915 148 -247 61 -260 65 -283 75 -11 5 -38 13 -60 18 -88 21 -131 33 -150
42 -11 5 -38 13 -60 18 -85 20 -131 33 -150 41 -11 5 -40 14 -65 20 -44 11
-106 28 -205 55 -27 8 -75 21 -105 29 -30 8 -80 22 -110 30 -30 8 -82 23 -115
32 -33 9 -82 22 -110 28 -27 7 -57 15 -65 19 -8 3 -35 10 -60 16 -25 5 -72 17
-105 26 -33 9 -87 23 -120 31 -33 9 -87 22 -120 31 -33 8 -82 20 -110 27 -27
7 -57 15 -65 19 -8 3 -37 11 -65 17 -27 6 -77 18 -110 26 -33 9 -87 22 -120
29 -33 8 -89 21 -125 30 -36 9 -90 22 -120 29 -30 7 -62 15 -70 19 -8 3 -37
11 -65 16 -47 10 -102 22 -255 57 -160 37 -199 46 -260 59 -36 8 -96 21 -135
30 -38 9 -101 23 -140 31 -38 8 -99 22 -135 29 -197 43 -548 114 -745 151 -44
8 -116 22 -160 30 -121 23 -221 41 -315 58 -294 51 -268 47 -545 91 -425 67
-771 113 -1090 144 -60 6 -144 16 -185 21 -41 6 -142 15 -225 21 -82 6 -204
14 -270 19 -66 5 -249 9 -407 9 l-288 1 0 -1260z"/>
</g>
</svg>
