<?xml version="1.0" standalone="no"?>
<!DOCTYPE svg PUBLIC "-//W3C//DTD SVG 20010904//EN"
 "http://www.w3.org/TR/2001/REC-SVG-20010904/DTD/svg10.dtd">
<svg version="1.0" xmlns="http://www.w3.org/2000/svg"
 width="100%" height="100%" viewBox="0 0 900.000000 425.000000"
 preserveAspectRatio="xMidYMid meet">
<metadata>
Created by potrace 1.10, written by Peter Selinger 2001-2011
</metadata>
<g transform="translate(0.000000,579.000000) scale(0.130000,-0.130000)"
fill="#f56879" stroke="none">
<path d="M0 4155 l0 -1635 288 -1 c158 0 341 -4 407 -9 66 -5 188 -13 270 -19
83 -6 184 -15 225 -21 41 -5 125 -15 185 -21 319 -31 665 -77 1090 -144 229
-37 274 -44 365 -60 234 -41 269 -47 340 -60 41 -7 111 -21 155 -29 44 -8 116
-22 160 -30 75 -14 134 -26 308 -60 118 -24 339 -69 437 -91 36 -7 97 -21 135
-29 39 -8 102 -22 140 -31 39 -9 99 -22 135 -30 36 -8 94 -21 130 -29 36 -8
97 -22 135 -31 39 -8 99 -22 135 -31 36 -8 88 -19 115 -25 28 -5 57 -13 65
-16 8 -4 40 -12 70 -19 30 -7 84 -20 120 -29 36 -9 92 -22 125 -30 33 -7 87
-20 120 -29 33 -8 83 -20 110 -26 28 -6 57 -14 65 -17 8 -4 38 -12 65 -19 28
-7 77 -19 110 -27 33 -9 87 -22 120 -31 33 -8 87 -22 120 -31 33 -9 80 -21
105 -26 25 -6 52 -13 60 -16 8 -4 38 -12 65 -19 47 -11 106 -27 220 -59 64
-17 144 -39 220 -60 33 -8 83 -22 110 -30 28 -7 70 -19 95 -25 25 -6 54 -15
65 -20 19 -8 65 -21 150 -41 22 -5 49 -13 60 -18 19 -9 62 -21 150 -42 22 -5
49 -13 60 -18 20 -9 50 -18 170 -47 33 -8 85 -21 115 -29 398 -100 745 -151
1033 -154 l77 -1 0 2450 0 2450 -4500 0 -4500 0 0 -1635z"/>
</g>
</svg>
