<svg id="visual" viewBox="0 0 960 540" width="960" height="540" xmlns="http://www.w3.org/2000/svg" xmlns:xlink="http://www.w3.org/1999/xlink" version="1.1"><rect x="0" y="0" width="960" height="540" fill="#F56879"></rect><defs><linearGradient id="grad1_0" x1="43.8%" y1="0%" x2="100%" y2="100%"><stop offset="14.444444444444446%" stop-color="#000000" stop-opacity="1"></stop><stop offset="85.55555555555554%" stop-color="#000000" stop-opacity="1"></stop></linearGradient></defs><defs><linearGradient id="grad1_1" x1="43.8%" y1="0%" x2="100%" y2="100%"><stop offset="14.444444444444446%" stop-color="#000000" stop-opacity="1"></stop><stop offset="85.55555555555554%" stop-color="#77001b" stop-opacity="1"></stop></linearGradient></defs><defs><linearGradient id="grad1_2" x1="43.8%" y1="0%" x2="100%" y2="100%"><stop offset="14.444444444444446%" stop-color="#b52d47" stop-opacity="1"></stop><stop offset="85.55555555555554%" stop-color="#77001b" stop-opacity="1"></stop></linearGradient></defs><defs><linearGradient id="grad1_3" x1="43.8%" y1="0%" x2="100%" y2="100%"><stop offset="14.444444444444446%" stop-color="#b52d47" stop-opacity="1"></stop><stop offset="85.55555555555554%" stop-color="#f56879" stop-opacity="1"></stop></linearGradient></defs><defs><linearGradient id="grad2_0" x1="0%" y1="0%" x2="56.3%" y2="100%"><stop offset="14.444444444444446%" stop-color="#000000" stop-opacity="1"></stop><stop offset="85.55555555555554%" stop-color="#000000" stop-opacity="1"></stop></linearGradient></defs><defs><linearGradient id="grad2_1" x1="0%" y1="0%" x2="56.3%" y2="100%"><stop offset="14.444444444444446%" stop-color="#77001b" stop-opacity="1"></stop><stop offset="85.55555555555554%" stop-color="#000000" stop-opacity="1"></stop></linearGradient></defs><defs><linearGradient id="grad2_2" x1="0%" y1="0%" x2="56.3%" y2="100%"><stop offset="14.444444444444446%" stop-color="#77001b" stop-opacity="1"></stop><stop offset="85.55555555555554%" stop-color="#b52d47" stop-opacity="1"></stop></linearGradient></defs><defs><linearGradient id="grad2_3" x1="0%" y1="0%" x2="56.3%" y2="100%"><stop offset="14.444444444444446%" stop-color="#f56879" stop-opacity="1"></stop><stop offset="85.55555555555554%" stop-color="#b52d47" stop-opacity="1"></stop></linearGradient></defs><g transform="translate(960, 0)"><path d="M0 540C-81.6 504.6 -163.3 469.3 -247.5 428.7C-331.7 388.1 -418.5 342.3 -467.7 270C-516.8 197.7 -528.4 98.8 -540 0L0 0Z" fill="#d54b5f"></path><path d="M0 405C-61.2 378.5 -122.5 351.9 -185.6 321.5C-248.8 291.1 -313.9 256.7 -350.7 202.5C-387.6 148.3 -396.3 74.1 -405 0L0 0Z" fill="#960030"></path><path d="M0 270C-40.8 252.3 -81.6 234.6 -123.7 214.3C-165.9 194.1 -209.2 171.2 -233.8 135C-258.4 98.8 -264.2 49.4 -270 0L0 0Z" fill="#5a0000"></path><path d="M0 135C-20.4 126.2 -40.8 117.3 -61.9 107.2C-82.9 97 -104.6 85.6 -116.9 67.5C-129.2 49.4 -132.1 24.7 -135 0L0 0Z" fill="#000000"></path></g><g transform="translate(0, 540)"><path d="M0 -540C95.4 -526.4 190.8 -512.8 270 -467.7C349.2 -422.5 412.4 -345.7 454.7 -262.5C497 -179.3 518.5 -89.6 540 0L0 0Z" fill="#d54b5f"></path><path d="M0 -405C71.5 -394.8 143.1 -384.6 202.5 -350.7C261.9 -316.9 309.3 -259.3 341 -196.9C372.7 -134.5 388.9 -67.2 405 0L0 0Z" fill="#960030"></path><path d="M0 -270C47.7 -263.2 95.4 -256.4 135 -233.8C174.6 -211.2 206.2 -172.9 227.3 -131.3C248.5 -89.6 259.2 -44.8 270 0L0 0Z" fill="#5a0000"></path><path d="M0 -135C23.8 -131.6 47.7 -128.2 67.5 -116.9C87.3 -105.6 103.1 -86.4 113.7 -65.6C124.2 -44.8 129.6 -22.4 135 0L0 0Z" fill="#000000"></path></g></svg>