<svg id="visual" viewBox="0 0 960 540" width="960" height="540" xmlns="http://www.w3.org/2000/svg" xmlns:xlink="http://www.w3.org/1999/xlink" version="1.1"><rect x="0" y="0" width="960" height="540" fill="#1d2124"></rect><path d="M0 225L32 240C64 255 128 285 192 308.7C256 332.3 320 349.7 384 357.5C448 365.3 512 363.7 576 338.3C640 313 704 264 768 239.3C832 214.7 896 214.3 928 214.2L960 214L960 0L928 0C896 0 832 0 768 0C704 0 640 0 576 0C512 0 448 0 384 0C320 0 256 0 192 0C128 0 64 0 32 0L0 0Z" fill="#f56879"></path></svg>